<?xml version="1.0" encoding="iso-8859-1"?>
<!-- Generator: Adobe Illustrator 20.0.0, SVG Export Plug-In . SVG Version: 6.00 Build 0)  -->
<svg version="1.1" id="E-Learning" xmlns="http://www.w3.org/2000/svg" xmlns:xlink="http://www.w3.org/1999/xlink" x="0px" y="0px"
	 viewBox="0 0 60 58" style="enable-background:new 0 0 60 58;" xml:space="preserve">
<g>
	<path style="fill:#ffffff;" d="M59,3h-3V1c0-0.552-0.447-1-1-1H30H5C4.447,0,4,0.448,4,1v2H1C0.447,3,0,3.448,0,4v37
		c0,0.552,0.447,1,1,1h43v-2H2V5h2v32c0,0.552,0.447,1,1,1h25h14v-2H31V2h2v25.875c0,1.115,0.334,1.964,0.993,2.522
		c0.791,0.668,1.741,0.638,2.068,0.603h9.522c0.751,0,0.997,0.28,1.078,0.372c0.384,0.435,0.38,1.228,0.348,1.491
		C47.003,32.908,47,32.954,47,33v15.041c0,0.263-0.04,0.613-0.23,0.787c-0.195,0.178-0.552,0.187-0.646,0.18
		C46.083,49.002,46.041,49,46,49H35v2h10.954c0.054,0.004,0.129,0.008,0.222,0.008c0.436,0,1.248-0.09,1.911-0.676
		C48.504,49.965,49,49.269,49,48.041V33.059c0.042-0.392,0.129-1.9-0.825-2.996C47.753,29.578,46.961,29,45.584,29H36
		c-0.056,0-0.11,0.004-0.165,0.014c-0.003,0.001-0.344,0.032-0.549-0.143C35.102,28.714,35,28.361,35,27.875V2h19v2v32h-2v2h3
		c0.553,0,1-0.448,1-1V5h2v35h-6v2h7c0.553,0,1-0.448,1-1V4C60,3.448,59.553,3,59,3z M6,36V4V2h23v34H6z"/>
	<path style="fill:#ffffff;" d="M30.741,44H15.259C13.462,44,12,45.565,12,47.488v6.939C12,56.364,13.492,58,15.259,58h15.482
		C32.508,58,34,56.364,34,54.428v-6.939C34,45.565,32.538,44,30.741,44z M32,54.428C32,55.25,31.4,56,30.741,56H15.259
		C14.6,56,14,55.25,14,54.428v-6.939C14,46.695,14.588,46,15.259,46h15.482C31.412,46,32,46.695,32,47.488V54.428z"/>
	<rect x="27" y="49" style="fill:#ffffff;" width="3" height="2"/>
	<path style="fill:#ffffff;" d="M52,5c0-0.552-0.447-1-1-1H38v2h12v10H38v2h13c0.553,0,1-0.448,1-1V5z"/>
	<rect x="38" y="20" style="fill:#ffffff;" width="13" height="2"/>
	<rect x="38" y="24" style="fill:#ffffff;" width="13" height="2"/>
	<rect x="9" y="20" style="fill:#ffffff;" width="11" height="2"/>
	<rect x="9" y="24" style="fill:#ffffff;" width="16" height="2"/>
	<rect x="9" y="28" style="fill:#ffffff;" width="16" height="2"/>
	<path style="fill:#ffffff;" d="M25,4H10C9.447,4,9,4.448,9,5v11c0,0.552,0.447,1,1,1h15c0.553,0,1-0.448,1-1V5
		C26,4.448,25.553,4,25,4z M24,15H11V6h13V15z"/>
</g>
</svg>
